<?xml version="1.0" encoding="UTF-8" standalone="no"?><!DOCTYPE svg PUBLIC "-//W3C//DTD SVG 1.1//EN" "http://www.w3.org/Graphics/SVG/1.1/DTD/svg11.dtd"><svg width="100%" height="100%" viewBox="0 0 808 283" version="1.1" xmlns="http://www.w3.org/2000/svg" xmlns:xlink="http://www.w3.org/1999/xlink" xml:space="preserve" xmlns:serif="http://www.serif.com/" style="fill-rule:evenodd;clip-rule:evenodd;stroke-miterlimit:10;"><g id="Color"></g><g id="Capa-4" serif:id="Capa 4"><rect x="-21.12" y="-77.58" width="850.394" height="434.534" style="fill:none;stroke:#201410;stroke-width:1px;"/><g><path d="M363.249,120.098c-4.584,0 -8.816,1.127 -12.695,3.38c-3.88,2.253 -6.966,5.418 -9.258,9.492c-2.292,4.075 -3.437,8.385 -3.437,12.93c0,4.507 1.155,8.817 3.467,12.931c2.311,4.114 5.417,7.317 9.315,9.609c3.898,2.293 8.082,3.439 12.549,3.439c4.506,0 8.777,-1.137 12.813,-3.41c4.035,-2.272 7.14,-5.348 9.315,-9.227c2.175,-3.879 3.262,-8.248 3.262,-13.107c0,-7.405 -2.439,-13.596 -7.317,-18.572c-4.878,-4.976 -10.883,-7.465 -18.014,-7.465m32.922,-31.01l0,88.734l-8.12,0l0,-11.004c-3.452,4.198 -7.326,7.356 -11.621,9.474c-4.296,2.118 -8.994,3.177 -14.093,3.177c-9.062,0 -16.799,-3.284 -23.213,-9.856c-6.414,-6.57 -9.621,-14.563 -9.621,-23.978c0,-9.218 3.236,-17.103 9.709,-23.654c6.472,-6.551 14.259,-9.827 23.36,-9.827c5.256,0 10.013,1.118 14.27,3.354c4.255,2.236 7.992,5.59 11.209,10.062l0,-36.482l8.12,0Z" style="fill:#fff;fill-rule:nonzero;"/><path d="M468.723,139.34c-1.1,-4.393 -2.7,-7.904 -4.802,-10.533c-2.102,-2.627 -4.88,-4.746 -8.336,-6.354c-3.457,-1.609 -7.09,-2.413 -10.899,-2.413c-6.285,0 -11.686,2.021 -16.202,6.061c-3.299,2.942 -5.794,7.355 -7.482,13.239l47.721,0Zm0,17.241l6.943,3.648c-2.277,4.472 -4.907,8.082 -7.892,10.827c-2.984,2.746 -6.341,4.835 -10.071,6.267c-3.731,1.431 -7.952,2.147 -12.663,2.147c-10.444,0 -18.611,-3.422 -24.501,-10.267c-5.889,-6.846 -8.834,-14.583 -8.834,-23.214c0,-8.12 2.492,-15.357 7.479,-21.713c6.321,-8.08 14.783,-12.121 25.384,-12.121c10.915,0 19.632,4.139 26.149,12.416c4.633,5.845 6.989,13.142 7.068,21.889l-57.607,0c0.157,7.436 2.533,13.532 7.129,18.287c4.595,4.755 10.27,7.133 17.026,7.133c3.259,0 6.43,-0.567 9.514,-1.7c3.083,-1.133 5.704,-2.638 7.864,-4.514c2.161,-1.875 4.498,-4.904 7.012,-9.085" style="fill:#fff;fill-rule:nonzero;"/><path d="M525.329,120.804l-5.296,5.473c-4.406,-4.276 -8.712,-6.414 -12.92,-6.414c-2.675,0 -4.966,0.882 -6.873,2.648c-1.908,1.765 -2.861,3.824 -2.861,6.178c0,2.08 0.786,4.06 2.358,5.943c1.572,1.922 4.875,4.178 9.907,6.767c6.132,3.177 10.299,6.237 12.501,9.179c2.162,2.982 3.243,6.336 3.243,10.062c0,5.257 -1.847,9.709 -5.541,13.357c-3.693,3.649 -8.309,5.473 -13.848,5.473c-3.694,0 -7.22,-0.805 -10.578,-2.413c-3.36,-1.608 -6.139,-3.824 -8.34,-6.649l5.179,-5.884c4.207,4.747 8.67,7.12 13.388,7.12c3.303,0 6.113,-1.059 8.434,-3.178c2.319,-2.118 3.48,-4.609 3.48,-7.473c0,-2.353 -0.767,-4.452 -2.3,-6.296c-1.533,-1.804 -4.993,-4.079 -10.378,-6.826c-5.779,-2.98 -9.711,-5.922 -11.794,-8.826c-2.083,-2.902 -3.125,-6.217 -3.125,-9.944c0,-4.864 1.659,-8.904 4.98,-12.122c3.32,-3.216 7.514,-4.825 12.584,-4.825c5.894,0 11.827,2.884 17.8,8.65" style="fill:#fff;fill-rule:nonzero;"/><rect x="538.687" y="113.802" width="8.238" height="64.02" style="fill:#fff;"/><path d="M594.939,120.098c-4.668,0 -9.003,1.128 -13.004,3.383c-4.001,2.256 -7.14,5.375 -9.415,9.356c-2.275,3.982 -3.412,8.288 -3.412,12.916c0,7.023 2.354,12.828 7.061,17.417c4.707,4.59 10.807,6.885 18.3,6.885c7.57,0 13.66,-2.275 18.27,-6.826c4.609,-4.55 6.914,-10.533 6.914,-17.947c0,-4.825 -1.059,-9.129 -3.177,-12.916c-2.119,-3.785 -5.12,-6.776 -9.003,-8.973c-3.884,-2.196 -8.061,-3.295 -12.534,-3.295m24.302,-6.296l8.238,0l0,51.016c0,8.983 -0.785,15.553 -2.354,19.712c-2.157,5.884 -5.904,10.415 -11.239,13.593c-5.335,3.177 -11.748,4.765 -19.241,4.765c-5.492,0 -10.425,-0.777 -14.798,-2.33c-4.375,-1.555 -7.935,-3.64 -10.681,-6.256c-2.746,-2.617 -5.276,-6.443 -7.59,-11.479l8.944,0c2.434,4.237 5.577,7.375 9.426,9.415c3.848,2.04 8.621,3.06 14.316,3.06c5.615,0 10.359,-1.046 14.227,-3.137c3.869,-2.093 6.629,-4.722 8.278,-7.888c1.649,-3.167 2.474,-8.279 2.474,-15.336l0,-3.294c-3.102,3.923 -6.891,6.934 -11.368,9.031c-4.477,2.1 -9.229,3.149 -14.254,3.149c-5.891,0 -11.427,-1.462 -16.611,-4.385c-5.184,-2.922 -9.188,-6.855 -12.015,-11.798c-2.828,-4.941 -4.241,-10.375 -4.241,-16.299c0,-5.922 1.472,-11.445 4.418,-16.563c2.945,-5.12 7.019,-9.17 12.222,-12.151c5.203,-2.982 10.691,-4.473 16.463,-4.473c4.789,0 9.257,0.991 13.4,2.972c4.143,1.981 8.137,5.248 11.986,9.798l0,-11.122Z" style="fill:#fff;fill-rule:nonzero;"/><path d="M645.132,113.802l8.238,0l0,11.474c3.296,-4.393 6.943,-7.679 10.945,-9.856c4.002,-2.177 8.355,-3.266 13.063,-3.266c4.785,0 9.032,1.217 12.739,3.648c3.707,2.433 6.443,5.708 8.208,9.827c1.766,4.119 2.649,10.533 2.649,19.241l0,32.952l-8.239,0l0,-30.539c0,-7.375 -0.306,-12.298 -0.916,-14.77c-0.954,-4.236 -2.786,-7.423 -5.493,-9.561c-2.706,-2.138 -6.238,-3.207 -10.592,-3.207c-4.984,0 -9.447,1.647 -13.39,4.943c-3.943,3.295 -6.542,7.375 -7.797,12.239c-0.786,3.177 -1.177,8.983 -1.177,17.417l0,23.478l-8.238,0l0,-64.02Z" style="fill:#fff;fill-rule:nonzero;"/><path d="M659.873,196.65l-3.602,3.675c-1.464,-1.479 -2.793,-2.218 -3.986,-2.218c-0.654,0 -1.166,0.141 -1.535,0.424c-0.37,0.283 -0.554,0.634 -0.554,1.055c0,0.318 0.117,0.612 0.351,0.88c0.235,0.268 0.814,0.634 1.738,1.098l2.131,1.087c2.245,1.13 3.787,2.283 4.626,3.457c0.838,1.174 1.257,2.551 1.257,4.131c0,2.101 -0.756,3.855 -2.27,5.261c-1.513,1.406 -3.542,2.109 -6.085,2.109c-3.383,0 -6.083,-1.348 -8.101,-4.044l3.582,-3.979c0.682,0.812 1.481,1.468 2.398,1.968c0.916,0.5 1.73,0.75 2.44,0.75c0.768,0 1.386,-0.189 1.855,-0.565c0.469,-0.377 0.703,-0.812 0.703,-1.305c0,-0.913 -0.845,-1.804 -2.536,-2.674l-1.961,-1c-3.752,-1.928 -5.628,-4.341 -5.628,-7.24c0,-1.869 0.707,-3.467 2.121,-4.794c1.414,-1.326 3.222,-1.989 5.425,-1.989c1.506,0 2.924,0.337 4.252,1.011c1.329,0.674 2.455,1.642 3.379,2.902Z" style="fill:#fff;fill-rule:nonzero;"/><path d="M665.588,184.628l5.819,0l0,8.718l3.453,0l0,5.109l-3.453,0l0,18.545l-5.819,0l0,-18.545l-2.984,0l0,-5.109l2.984,0l0,-8.718Z" style="fill:#fff;fill-rule:nonzero;"/><path d="M677.953,193.346l5.884,0l0,11.392c0,2.218 0.149,3.758 0.449,4.62c0.299,0.862 0.779,1.533 1.442,2.011c0.662,0.478 1.478,0.717 2.447,0.717c0.968,0 1.791,-0.235 2.468,-0.706c0.676,-0.471 1.178,-1.163 1.506,-2.076c0.242,-0.682 0.363,-2.138 0.363,-4.37l0,-11.588l5.82,0l0,10.022c0,4.131 -0.32,6.957 -0.96,8.479c-0.781,1.856 -1.932,3.28 -3.453,4.272c-1.52,0.993 -3.453,1.49 -5.798,1.49c-2.543,0 -4.6,-0.58 -6.171,-1.74c-1.57,-1.159 -2.675,-2.775 -3.314,-4.848c-0.455,-1.435 -0.683,-4.044 -0.683,-7.827l0,-9.848Z" style="fill:#fff;fill-rule:nonzero;"/><path d="M721.291,184.215l5.819,0l0,32.785l-5.819,0l0,-2.5c-1.135,1.101 -2.274,1.895 -3.417,2.38c-1.143,0.486 -2.381,0.729 -3.715,0.729c-2.995,0 -5.586,-1.185 -7.772,-3.555c-2.185,-2.37 -3.278,-5.316 -3.278,-8.838c0,-3.652 1.057,-6.645 3.172,-8.979c2.115,-2.333 4.684,-3.5 7.707,-3.5c1.391,0 2.697,0.268 3.918,0.805c1.22,0.536 2.349,1.34 3.385,2.413l0,-11.74Zm-6.117,14.001c-1.799,0 -3.293,0.648 -4.483,1.946c-1.19,1.297 -1.784,2.96 -1.784,4.989c0,2.044 0.605,3.725 1.816,5.044c1.211,1.319 2.701,1.978 4.472,1.978c1.827,0 3.342,-0.648 4.546,-1.945c1.204,-1.298 1.806,-2.997 1.806,-5.099c0,-2.058 -0.602,-3.725 -1.806,-5c-1.204,-1.275 -2.726,-1.913 -4.567,-1.913Z" style="fill:#fff;fill-rule:nonzero;"/><path d="M735.266,183.606c1.02,0 1.895,0.377 2.625,1.131c0.73,0.753 1.095,1.666 1.095,2.739c0,1.058 -0.362,1.96 -1.084,2.707c-0.723,0.746 -1.587,1.119 -2.593,1.119c-1.035,0 -1.917,-0.38 -2.647,-1.141c-0.729,-0.761 -1.094,-1.685 -1.094,-2.772c0,-1.044 0.361,-1.935 1.084,-2.674c0.722,-0.739 1.594,-1.109 2.614,-1.109Zm-2.91,9.74l5.82,0l0,23.654l-5.82,0l0,-23.654Z" style="fill:#fff;fill-rule:nonzero;"/><path d="M754.357,192.737c2.188,0 4.245,0.558 6.171,1.674c1.925,1.116 3.428,2.631 4.508,4.544c1.08,1.913 1.62,3.979 1.62,6.196c0,2.232 -0.543,4.319 -1.631,6.262c-1.087,1.942 -2.568,3.46 -4.444,4.554c-1.876,1.094 -3.943,1.642 -6.203,1.642c-3.325,0 -6.164,-1.207 -8.516,-3.62c-2.352,-2.413 -3.527,-5.345 -3.527,-8.794c0,-3.696 1.328,-6.776 3.986,-9.24c2.33,-2.145 5.009,-3.218 8.036,-3.218Zm0.096,5.588c-1.808,0 -3.314,0.641 -4.516,1.924c-1.203,1.282 -1.805,2.924 -1.805,4.924c0,2.058 0.595,3.725 1.783,5c1.189,1.276 2.694,1.913 4.516,1.913c1.822,0 3.338,-0.645 4.548,-1.934c1.21,-1.29 1.815,-2.95 1.815,-4.979c0,-2.029 -0.594,-3.678 -1.783,-4.946c-1.188,-1.268 -2.708,-1.902 -4.558,-1.902Z" style="fill:#fff;fill-rule:nonzero;"/><path d="M202.778,120.652c-3.302,-13.189 -8.108,-23.731 -14.419,-31.625c-6.311,-7.886 -14.652,-14.245 -25.028,-19.078c-10.38,-4.829 -21.286,-7.243 -32.723,-7.243c-18.868,0 -35.084,6.066 -48.642,18.198c-9.906,8.831 -17.397,22.08 -22.463,39.748l143.275,0Zm0,51.764l20.846,10.951c-6.837,13.426 -14.735,24.265 -23.697,32.508c-8.958,8.244 -19.037,14.517 -30.236,18.812c-11.2,4.302 -23.874,6.453 -38.018,6.453c-31.358,0 -55.878,-10.274 -73.562,-30.831c-17.683,-20.549 -26.524,-43.783 -26.524,-69.695c0,-24.377 7.484,-46.107 22.455,-65.189c18.981,-24.261 44.385,-36.394 76.213,-36.394c32.771,0 58.939,12.43 78.51,37.277c13.908,17.552 20.982,39.459 21.219,65.72l-172.956,0c0.47,22.332 7.605,40.624 21.403,54.908c13.795,14.276 30.835,21.414 51.117,21.414c9.785,0 19.308,-1.7 28.567,-5.107c9.255,-3.4 17.123,-7.92 23.61,-13.547c6.487,-5.633 13.505,-14.727 21.053,-27.28" style="fill:#fdd700;fill-rule:nonzero;"/><path d="M372.728,241.141c19.786,0 37.42,-3.821 52.911,-11.448c4.829,-2.378 9.241,-5.166 13.458,-8.147l-15.144,-18.729c-14.351,10.271 -31.008,15.534 -50.085,15.534c-15.412,0 -29.323,-3.415 -41.734,-10.237c-12.411,-6.822 -22.174,-16.412 -29.293,-28.763c-7.115,-12.35 -10.673,-25.528 -10.673,-39.53c0,-21.53 7.736,-39.823 23.204,-54.881c15.468,-15.058 34.908,-22.587 58.319,-22.587c20.913,0 38.617,5.841 53.234,17.306l15.018,-19.337c-0.109,-0.084 -0.207,-0.184 -0.317,-0.267c-8.244,-6.239 -18.285,-11.305 -30.12,-15.19c-11.836,-3.889 -24.115,-5.833 -36.837,-5.833c-20.256,0 -38.571,4.479 -54.942,13.43c-16.371,8.951 -29.236,21.406 -38.601,37.363c-9.364,15.961 -14.046,33.242 -14.046,51.85c0,27.68 10.011,51.177 30.033,70.493c20.023,19.315 45.228,28.973 75.615,28.973" style="fill:#fdd700;fill-rule:nonzero;"/><path d="M554.359,89.089c0,6.382 -5.171,11.553 -11.553,11.553c-6.382,0 -11.553,-5.171 -11.553,-11.553c0,-6.382 5.171,-11.553 11.553,-11.553c6.382,0 11.553,5.171 11.553,11.553" style="fill:#fdd700;fill-rule:nonzero;"/></g></g></svg>